<!-- D-DIN font https://github.com/amcchord/datto-d-din -->
<svg width="1000" height="100" xmlns="http://www.w3.org/2000/svg">
  <defs>
    <style type="text/css">
      /* Default styles for all elements */
      rect, path, circle, line {
        stroke: black;
      }
      text {
        fill: black;
        text-anchor: middle;
        font-family: D-DIN;
      }
      .thick-line {
        stroke-width: 2;
      }
      .standard-key text {
        fill: #242326;
      }
      .standard-key * {
        fill: #c7c1c9;
      }
      .medium-key text {
        fill: #e4e3e6;
      }
      .medium-key * {
        fill: #a09a9a;
      }
      .f-key text {
        fill: #e4e3e6;
      }
      .f-key * {
        fill: #785f5f
      }
      .led { fill: red; }
      path.logo-filled { fill: red }
    </style>
  </defs>

  <g id="standard-key" class="standard-key" transform="translate(0, 0)">
    <!-- Rounded square -->
<path d="
    M 15,5
    H 85
    A 10,10 0 0 1 95,15
    V 85
    A 10,10 0 0 1 85,95
    H 15
    A 10,10 0 0 1 5,85
    V 15
    A 10,10 0 0 1 15,5
    Z
"/>
    <!-- Almost complete circle with a flat top -->
    <path d="M25,25 A35,35 0 1,0 75,25 Z"/>
    <!-- Print icon -->
    <path class="logo-filled" stroke-width="1.5" d="M29,40 L35,45 29,50 Z"/>
    <path stroke-width="1.5" d="M40,40 L65,40 65,70 A10,10 0 0,1 52.5,65 A10,10 0,0,0 40,60 Z"/>
  </g>

  <g id="standard-key" class="medium-key" transform="translate(100, 0)">
    <!-- Rounded square -->
    <rect x="5" y="5" width="90" height="90" rx="10" ry="10"/>
    <path d="M25,25 A35,35 0 1,0 75,25 Z"/>
    
    <text x="50" y="45" font-size="18">INV</text>
    <text x="50" y="60" font-size="18">BLINK</text>
    <text x="50" y="75" font-size="18">NORM</text>
  </g>

  <g id="standard-key" class="medium-key" transform="translate(200, 0)">
    <rect x="5" y="5" width="90" height="90" rx="10" ry="10"/>
    <path d="M25,25 A35,35 0 1,0 75,25 Z"/>
    
    <text x="50" y="45" font-size="18">DEC</text>
    <text x="50" y="60" font-size="18">BLINK</text>
    <text x="50" y="75" font-size="18">INC</text>
  </g>

  <g id="led-key" class="standard-key" transform="translate(300,0)">
    <rect x="5" y="5" width="90" height="90" rx="10" ry="10"/>
    <circle cx="50" cy="50" r="35"/>
    <line x1="25" y1="25" x2="75" y2="25"/>
    <path d="M35,45 L50,30 70,50 50,75 35,60" class="thick-line"/>
    <text x="50" y="62" font-size="28">2</text>
  </g>

  <g id="led-key" class="standard-key" transform="translate(400,0)">
    <!-- Rounded square -->
    <rect x="5" y="5" width="90" height="90" rx="10" ry="10"/>
    <!-- Complete circle -->
    <circle cx="50" cy="50" r="35"/>
    <!-- LED -->
    <path class="led" d="M 25,25 A 35,35 0 0 1 75,25 Z"/>
    <text x="50" y="60" font-size="24">PAL 2</text>
  </g>

</svg>
